<svg width="951" height="892" viewBox="0 0 951 892" fill="none" xmlns="http://www.w3.org/2000/svg">
<path fill-rule="evenodd" clip-rule="evenodd" d="M1 340.5H106V333.5H93V289.5H105V183.5H193V33.5H401V86.5H435V1.5H479V48.5H465V69.5H479V211.5H486V187.5H679V276.5H721V261.5H795V320.5H815V472.5H816V483.5H917V521.5H923L950 544.5V584.5H841V648.5H601V754.5H458V741.5H454V748.5H342V641.5H336V827.5H276V832.5H290V890.5H185V832.5H199V827.5H171V641.5H165V654.5H107V469.5H1V340.5ZM335 256.5H329V277.5H272V333.5H144V340.5H165V382.5H167V368.5H209V426.5L222 439.5H235L249 425.5V397.5H301V433.5H342V404.5H407V305.5H394V320.5H335V256.5ZM143 290.5V219.5H196V220.5H193V269.5H232V252.5H236V290.5H143ZM235 127.5H229V219.5H227V220.5H232V236.5H236V226.5H258L279 211.5H329V232.5H335V198.5H350V190.5H328V177.5H235V127.5ZM401 123.5H435V210.5H414V248.5H479V238.5H486V262.5H614V361.5H443V327.5H465V269.5H407V283.5H394V198.5H379V190.5H401V123.5ZM721 312.5H665V427.5H557L544 440.5H543V519.5H508V522.5H537V577.5H508V604.5H700V505.5H693V426.5H721V312.5ZM458 712.5V639.5H478V598.5H458V522.5H485V519.5H342V484.5H277V486.5H291L315 511.5V563.5H266V569.5H305V591.5H336V611.5H342V583.5H415V662.5H393V704.5H454V712.5H458ZM167 413.5H165V548.5H143V576.5H165V611.5H171V604.5H212V569.5H243V563.5H228V486.5H244V484.5H234V469.5H167V413.5Z" fill="black" stroke="#27272A" stroke-width="2"/>
<path d="M322.5 177H235.5V34H322.5V177Z" fill="#09090B"/>
<path d="M171.5 705V827H303.5V705H171.5Z" fill="#09090B"/>
<path d="M372 47.5V62.5H400V47.5M372 47.5H400M372 47.5V34.5H400V47.5M487 201.5H500V188.5H487M487 201.5V188.5M487 201.5V202M487 188.5H495V196.5H487V188.5ZM600 201.5V188.5H586V201.5H600ZM600 201.5V208.5H593V201.5H600ZM250 226.5V258.5H236V226.5H250ZM250 226.5H258V236.5H250V226.5ZM215 48.5V34.5H228V48.5H215ZM236 48.5H250V34.5H236V48.5ZM322 48.5V34.5H307V48.5H322ZM276 83.5H289V70.5H276V83.5ZM272 84.5V97.5H285V84.5H272ZM265 155.5H307V141.5H265V155.5ZM544 261.5H557V248.5H544V261.5ZM615 348.5V361.5H628V348.5H615ZM615 426.5H628V413.5H615V426.5ZM795 346.5H814V321.5H795V346.5ZM814 475.5H816V473.5H814V475.5ZM767.5 536C767.5 542.075 762.575 547 756.5 547C750.425 547 745.5 542.075 745.5 536C745.5 529.925 750.425 525 756.5 525C762.575 525 767.5 529.925 767.5 536ZM823 617.5H832L840 609.5V601.5L832 593.5H824L816 601.5V610.5L823 617.5ZM514 753.5H543V726.5H514V753.5ZM529 469.5H542V455.5H529V469.5ZM501.5 463C501.5 466.314 498.814 469 495.5 469C492.186 469 489.5 466.314 489.5 463C489.5 459.686 492.186 457 495.5 457C498.814 457 501.5 459.686 501.5 463ZM408 386.5H422V374.5H408V386.5ZM318 220.5L325 224.5L328 219.5L321 215.5L318 220.5ZM328.5 215.5C328.5 217.433 326.933 219 325 219C323.067 219 321.5 217.433 321.5 215.5C321.5 213.567 323.067 212 325 212C326.933 212 328.5 213.567 328.5 215.5ZM221 304.5H235V291.5H221V304.5ZM95.5 406C95.5 409.314 92.8137 412 89.5 412C86.1863 412 83.5 409.314 83.5 406C83.5 402.686 86.1863 400 89.5 400C92.8137 400 95.5 402.686 95.5 406ZM404 497.5H417V484.5H404V497.5ZM401 500.5V486.5H394V500.5H401ZM387 506.5H400V518.5H387V506.5ZM327 591.5V596.5L331 600.5H336V591.5H327ZM277 683.5V669.5H239C236.5 669.833 230.9 671.7 228.5 676.5C230.9 680.5 236.5 682.833 239 683.5H277ZM237 762.5H244L249 757.5L251 759.5H264V772.5H253L249 776.5L248 775.5H237V762.5ZM172 754.5H185V741.5H172V754.5ZM281 839.5L288 845.5H290V832.5H281V839.5ZM291 718.5H303V705.5H291V718.5Z" stroke="#27272A" stroke-width="2"/>
<path d="M235 128V33M307 731.5V670.5H304V702.5H203V670.5H201V704.5H304V731.5M307 731.5H304M307 731.5V828M304 828V731.5M143 548.5V468M285.5 226.5H329.5M679.5 273.5H645V276.5H679.5M613 428V389.5H514V427M479 427V389.5H406.5M403 520V477.5M403 477.5H401M403 477.5V476M401 477.5V520M401 477.5V476M403 404V447.5M403 447.5H401M403 447.5V450M401 447.5V404M401 447.5V450M401 474V472M403 474V472M401 470V468M403 470V468M403 466V464M401 466V464M401 462V460M403 462V460M403 458V456M401 458V456M401 454V452M403 454V452M234 584V604.5H284V591.5M287 569V591.5H284M284 591.5V569M285.5 263.5H329.5M236 253V236M260 832.5V827.5H214V832.5H260Z" stroke="#27272A" stroke-width="2"/>
</svg>
